# xmcd
#
# Track frame offsets:
#	150
#	13889
#	37742
#	56988
#	81946
#	101150
#
# Disc length: 1676 seconds
#
# Revision: 1
# Processed by: cddbd v1.5.2PL0 Copyright (c) Steve Scherf et al.
# Submitted via: audiograbber 1.83.01
#
DISCID=49068a06
DTITLE=Pep's - En attendant...
DYEAR=2006
DGENRE=
TTITLE0=Tristan
TTITLE1=J'te serre
TTITLE2=Boum Boum (live à Paris)
TTITLE3=Paname (live à Voiron)
TTITLE4=Liberta (live à Lyon)
TTITLE5=La petite récolte du jardinier (live à Grenoble)
EXTD=
EXTT0=
EXTT1=
EXTT2=
EXTT3=
EXTT4=
EXTT5=
PLAYORDER=
